<svg width="16" height="16" viewBox="0 0 16 16" fill="none" xmlns="http://www.w3.org/2000/svg">
<g clip-path="url(#clip0_21_21)">
<path d="M6.90131 7.93248L9.45131 7.95998C9.45131 7.95998 9.69381 8.21123 9.91631 7.96873C10.1401 7.72623 11.4051 6.46123 11.5726 6.29373C11.7401 6.12623 11.9826 5.85623 12.2051 5.85623C12.4276 5.85623 13.3588 6.59123 13.7876 6.92623C14.0926 7.16498 14.8676 7.83873 15.0713 7.89373C15.2763 7.94998 15.7788 8.04248 15.7788 8.26623C15.7788 8.48998 15.0713 8.41498 14.8663 8.39623C14.6613 8.37748 13.4701 7.57748 13.2838 7.46498C13.0976 7.35373 12.5201 6.91623 12.4088 6.91623C12.2976 6.91623 10.6963 8.48873 10.6963 8.48873C10.6963 8.48873 11.7013 8.13498 11.9801 8.02373C12.2588 7.91248 12.5576 7.78123 12.7063 7.79998C12.8551 7.81873 13.8976 8.97248 14.0651 9.12123C14.2326 9.26998 14.7726 9.79123 14.9213 9.88498C15.0701 9.97748 16.0013 10.3687 15.8888 10.6112C15.7763 10.8537 14.6326 10.4887 14.4426 10.3937C14.2188 10.2825 13.6238 9.87248 13.2638 9.47498C13.1663 9.36748 12.6676 8.84248 12.5001 8.80498C12.3326 8.76748 10.5451 9.46623 10.5451 9.46623C10.5451 9.46623 11.8113 9.38248 12.0151 9.49373C12.2201 9.60498 12.8151 10.9125 12.9276 11.1787C13.0763 11.5325 13.5413 12.6587 13.6913 12.845C13.8401 13.0312 14.3988 13.515 14.2313 13.7387C14.0638 13.9625 13.3476 13.4125 13.2163 13.2262C13.0863 13.04 12.6363 12.51 12.0213 11.3375C11.8226 10.9575 11.5688 10.4437 11.4563 10.37C11.3451 10.295 10.2463 10.4812 10.2463 10.4812C10.2463 10.4812 10.1351 11.3562 10.1713 11.635C10.2088 11.9137 10.7113 14.2037 10.8038 14.6687C10.8963 15.1337 10.8963 15.3575 10.7288 15.4137C10.5613 15.47 10.3563 15.2837 10.1326 14.7625C10.0213 14.5025 9.35756 12.6212 9.26756 12.3712C9.10006 11.9062 9.14631 11.115 9.14631 11.115L5.45131 10.5012C5.45131 10.5012 4.97631 10.52 4.90256 10.65C4.82756 10.78 4.48381 12.3437 4.39006 12.66C4.29756 12.9762 3.61756 14.2237 3.54256 14.3162C3.46756 14.4087 3.28756 14.6837 3.07756 14.4462C2.92881 14.2787 3.22631 13.85 3.32006 13.4975C3.32006 13.4975 3.56256 12.9387 3.59881 12.585C3.63631 12.2312 3.88881 10.155 3.99006 10.0162C4.13881 9.81123 4.66006 9.60623 4.66006 9.60623C4.66006 9.60623 4.27881 9.45748 4.04631 9.37373C3.88006 9.31373 3.56256 9.20623 3.52506 9.21498C3.42756 9.23873 2.83631 10.2012 2.59381 10.5362C2.35131 10.8712 1.49506 11.82 1.38381 11.895C1.27256 11.97 0.992559 12.1 0.881309 11.8762C0.770059 11.6525 1.06756 11.485 1.23506 11.2625C1.40256 11.0387 2.05381 10.0525 2.25881 9.69873C2.46381 9.34498 3.04006 8.19123 3.22631 8.11623C3.41256 8.04123 4.60381 8.59998 4.60381 8.59998C4.60381 8.59998 3.93381 8.04748 3.65506 7.82498C3.37631 7.60123 3.15506 7.26373 3.01006 7.31623C2.86506 7.36873 2.18506 8.03248 1.88756 8.27498C1.59006 8.51748 0.866309 8.99123 0.640059 9.08498C0.370059 9.19623 0.137559 9.12248 0.100059 8.97373C0.062559 8.82498 0.583809 8.47123 0.975059 8.13623C1.36631 7.80123 1.86256 7.19498 2.12881 6.93623C2.46381 6.60998 2.78006 6.27373 2.94756 6.15123C3.27006 5.91498 5.14381 7.76498 5.14381 7.76498C5.14381 7.76498 4.15756 6.38748 3.95256 6.10873C3.74756 5.82998 3.58006 5.49498 3.52506 5.36373C3.46881 5.23373 3.41381 4.97248 3.61756 4.82373C3.82256 4.67498 4.10131 4.67498 4.39881 5.08373C4.64006 5.41498 6.48381 7.91248 6.48381 7.91248L6.90131 7.93248Z" fill="#868686"/>
<path d="M7.72877 7.18749C8.19252 7.19874 8.55877 7.26624 8.84502 7.40124C9.53002 7.72374 9.75002 8.27749 9.68002 8.24874C9.52502 8.18374 8.92877 7.58124 7.58877 7.56874C6.86752 7.56249 6.39752 7.90374 6.30502 7.89499C6.22627 7.88749 6.91002 7.16874 7.72877 7.18749Z" fill="#4E4D50"/>
<path d="M8.26617 6.13749C8.25867 6.13749 8.25242 6.13749 8.24492 6.13624C8.15117 6.12499 8.08367 6.03874 8.09617 5.94499L8.15867 5.44874C8.16992 5.35499 8.25617 5.28874 8.34992 5.29999C8.44367 5.31124 8.51117 5.39749 8.49867 5.49124L8.43617 5.98749C8.42492 6.07374 8.35117 6.13749 8.26617 6.13749ZM9.55992 6.49999C9.5383 6.49822 9.51715 6.49273 9.49742 6.48374C9.45637 6.46378 9.4249 6.42837 9.4099 6.38526C9.39491 6.34215 9.39761 6.29486 9.41742 6.25374L9.66867 5.73749C9.70992 5.65249 9.81367 5.61624 9.89867 5.65749C9.98367 5.69874 10.0199 5.80124 9.97867 5.88749L9.72742 6.40374C9.69617 6.46999 9.62867 6.50624 9.55992 6.49999ZM6.92492 6.16249C6.84242 6.16249 6.76992 6.10374 6.75617 6.01999L6.66992 5.51124C6.66229 5.46634 6.67273 5.42024 6.69896 5.38301C6.72518 5.34577 6.76507 5.32042 6.80992 5.31249C6.90367 5.29624 6.99242 5.35874 7.00867 5.45249L7.09492 5.96124C7.0991 5.98596 7.09783 6.01131 7.09122 6.0355C7.0846 6.05969 7.07279 6.08214 7.05661 6.1013C7.04042 6.12046 7.02026 6.13586 6.99751 6.14643C6.97477 6.15699 6.95 6.16247 6.92492 6.16249ZM7.65742 4.37499C7.56492 4.37499 7.48867 4.30124 7.48617 4.20749L7.47367 3.72374C7.47117 3.62874 7.54617 3.54999 7.64117 3.54749C7.73867 3.54874 7.81492 3.61999 7.81742 3.71499L7.82992 4.19874C7.83242 4.29374 7.75742 4.37249 7.66242 4.37499H7.65742ZM9.30867 4.57374C9.28253 4.57379 9.25672 4.56786 9.23323 4.5564C9.20974 4.54494 9.18918 4.52826 9.17313 4.50762C9.15709 4.48699 9.14597 4.46296 9.14065 4.43737C9.13533 4.41178 9.13593 4.38531 9.14242 4.35999L9.27867 3.82624C9.30242 3.73374 9.39492 3.67874 9.48742 3.70249C9.57992 3.72624 9.63492 3.81999 9.61117 3.91124L9.47492 4.44499C9.45492 4.52249 9.38492 4.57374 9.30867 4.57374Z" fill="#888A8A"/>
<path d="M7.15116 9.50265C7.18396 9.1958 7.00299 8.92487 6.74695 8.8975C6.4909 8.87013 6.25675 9.09668 6.22395 9.40352C6.19114 9.71036 6.37212 9.9813 6.62816 10.0087C6.8842 10.036 7.11836 9.80949 7.15116 9.50265Z" fill="#050402"/>
<path d="M8.28852 10.21C8.54602 10.21 8.75477 9.95987 8.75477 9.65128C8.75477 9.34269 8.54602 9.09253 8.28852 9.09253C8.03101 9.09253 7.82227 9.34269 7.82227 9.65128C7.82227 9.95987 8.03101 10.21 8.28852 10.21Z" fill="#050402"/>
<path d="M9.2505 9.83261C9.4222 9.81507 9.54211 9.61212 9.51833 9.3793C9.49456 9.14648 9.33609 8.97196 9.1644 8.98949C8.9927 9.00703 8.87279 9.20998 8.89657 9.4428C8.92034 9.67562 9.0788 9.85014 9.2505 9.83261Z" fill="#050402"/>
<path d="M6.15352 9.04881C6.20021 8.81949 6.10096 8.60567 5.93184 8.57124C5.76272 8.53681 5.58777 8.6948 5.54108 8.92412C5.49439 9.15345 5.59364 9.36727 5.76276 9.4017C5.93188 9.43613 6.10683 9.27814 6.15352 9.04881Z" fill="#050402"/>
</g>
<defs>
<clipPath id="clip0_21_21">
<rect width="16" height="16" fill="white"/>
</clipPath>
</defs>
</svg>
